# xmcd CD database file
#
# Track frame offsets:
#	150
#	23829
#	37910
#	54355
#	72757
#	88167
#	119767
#	142781
#	161643
#	180380
#	204380
#	225992
#	249046
#
# Disc length: 3623 seconds
#
# Revision: 0
# Processed by: cddbd v1.5.1PL0 Copyright (c) Steve Scherf et al.
# Submitted via: CDex 1.51
#
DISCID=9b0e250d
DTITLE=John Mayall - Padlock On The Blues
DYEAR=1999
DGENRE=Blues
TTITLE0=Don't Turn Your Back
TTITLE1=Padlock On The Blues
TTITLE2=A Hard Road
TTITLE3=Somebody's Watching
TTITLE4=Always A Brand New Road
TTITLE5=Any Country Girl
TTITLE6=The Strip
TTITLE7=I've Got To Talk To You
TTITLE8=Dancing Shoes
TTITLE9=Bad Dream Carcher
TTITLE10=When The Blues Are Bad
TTITLE11=Ain't No Surrender
TTITLE12=White Line Fever
EXTD=YEAR: 1999
EXTT0=
EXTT1=
EXTT2=
EXTT3=
EXTT4=
EXTT5=
EXTT6=
EXTT7=
EXTT8=
EXTT9=
EXTT10=
EXTT11=
EXTT12=
PLAYORDER=
